<svg id="Layer_1" data-name="Layer 1" xmlns="http://www.w3.org/2000/svg" viewBox="0 0 173.45 67.5" height="29px"><title>AOLlogo_black</title><path d="M95,16.8c18,0,26.58,14.2,26.58,26.35S113,69.5,95,69.5,68.4,55.3,68.4,43.15,77,16.8,95,16.8m0,38.85c6.4,0,11.82-5.27,11.82-12.5S101.39,30.64,95,30.64,83.16,35.91,83.16,43.15,88.59,55.65,95,55.65" transform="translate(-2.06 -2)"/><rect x="127.87" width="14.96" height="66.11"/><path d="M41.42,2H28.11l-26,66.11H19.71l3.48-9.56h23l3.22,9.56H67.2ZM27.84,45.15l6.92-23,6.93,23Z" transform="translate(-2.06 -2)"/><path d="M175.5,58.64a9.94,9.94,0,1,1-9.93-9.94,9.94,9.94,0,0,1,9.93,9.94" transform="translate(-2.06 -2)"/></svg>